<?xml version="1.0" encoding="iso-8859-1"?>
<!-- Generator: Adobe Illustrator 17.1.0, SVG Export Plug-In . SVG Version: 6.00 Build 0)  -->
<!DOCTYPE svg PUBLIC "-//W3C//DTD SVG 1.1//EN" "http://www.w3.org/Graphics/SVG/1.1/DTD/svg11.dtd">
<svg version="1.1" id="Capa_1" xmlns="http://www.w3.org/2000/svg" xmlns:xlink="http://www.w3.org/1999/xlink" x="0px" y="0px"
	 viewBox="0 0 511.002 511.002" style="enable-background:new 0 0 511.002 511.002;" xml:space="preserve">
<g>
	<path d="M510.908,306.898c-2.282-56.595-48.341-103.467-104.858-106.708c-44.168-2.534-85.697,21.303-105.801,60.725
		c-3.225,6.323-8.418,10.936-14.625,12.99c-1.373,0.454-2.763,0.902-4.167,1.342c2.29-16.933,6.187-33.68,11.625-49.926
		c2.072-6.19,6.623-11.329,12.813-14.471c39.544-20.07,63.456-61.638,60.917-105.898C363.571,48.436,316.701,2.377,260.107,0.094
		c-1.486-0.06-2.967-0.082-4.444-0.085c-0.054-0.001-0.107-0.008-0.162-0.008c-0.048,0-0.095,0.006-0.143,0.007
		c-28.918,0.023-56.138,10.949-77.085,31.068c-22.101,21.227-34.272,49.789-34.272,80.424c0,42.216,23.466,80.31,61.24,99.418
		c6.096,3.083,10.585,8.16,12.641,14.294c5.458,16.281,9.368,33.065,11.662,50.034c-1.408-0.441-2.802-0.89-4.178-1.345
		c-6.201-2.052-11.389-6.66-14.609-12.976c-20.103-39.43-61.628-63.269-105.806-60.736C48.435,203.431,2.376,250.303,0.094,306.898
		c-1.236,30.681,9.767,59.743,30.984,81.832c21.227,22.1,49.789,34.271,80.423,34.271c42.045,0,80.07-23.329,99.235-60.883
		c3.239-6.346,8.457-10.976,14.693-13.038c1.365-0.451,2.747-0.896,4.143-1.334c-3.547,26.674-11.001,52.53-22.211,77.007
		c-12.4,27.073-29.093,51.836-49.616,73.603c-2.054,2.178-2.616,5.368-1.43,8.117s3.893,4.528,6.886,4.528h28.299h128H347.8
		c2.994,0,5.7-1.78,6.886-4.528s0.624-5.939-1.43-8.117c-20.523-21.767-37.216-46.53-49.616-73.603
		c-11.21-24.477-18.664-50.333-22.211-77.007c1.396,0.438,2.778,0.883,4.143,1.334c6.236,2.062,11.455,6.692,14.693,13.038
		c19.166,37.554,57.19,60.883,99.235,60.883c30.635,0,59.196-12.171,80.423-34.271C501.141,366.641,512.145,337.579,510.908,306.898
		z M255.501,471.001c15.339,0,28.221,10.685,31.617,25h-63.233C227.28,481.686,240.162,471.001,255.501,471.001z M255.501,328.001
		c-2.501,0-4.9-0.543-7.13-1.614c-5.692-2.734-9.37-8.577-9.37-14.886c0-9.098,7.402-16.5,16.5-16.5c9.098,0,16.5,7.402,16.5,16.5
		S264.599,328.001,255.501,328.001z M265.585,281.666c-3.168-1.074-6.557-1.665-10.084-1.665c-3.527,0-6.916,0.591-10.084,1.665
		c-1.804-17.174-5.177-34.215-10.055-50.832c0.7-1.213,1.403-2.425,2.092-3.646c6.549-11.601,12.569-23.49,18.047-35.616
		c5.478,12.126,11.498,24.015,18.047,35.616c0.689,1.22,1.392,2.431,2.092,3.645C270.763,247.449,267.389,264.491,265.585,281.666z
		 M282.611,212.547c-7.023-13.021-13.376-26.391-19.017-40.048c3.195-8.049,6.148-16.19,8.866-24.408
		c6.354,17.729,13.912,35.017,22.637,51.707C289.956,203.143,285.714,207.486,282.611,212.547z M255.502,151.318
		c-3.241-9.19-6.18-18.485-8.786-27.873c-0.03-0.109-0.071-0.212-0.106-0.319c3.524-12.208,6.492-24.584,8.891-37.079
		c2.4,12.496,5.367,24.872,8.892,37.081c-0.035,0.106-0.075,0.208-0.105,0.317C261.682,132.832,258.742,142.127,255.502,151.318z
		 M351.838,105.811c1.106,19.292-3.599,37.991-12.909,54.023c-3.22-1.889-7.295-2.179-10.898-0.403c-5.7,2.8-8.05,9.69-5.25,15.39
		c0.622,1.265,1.463,2.343,2.43,3.258c-5.09,5.325-10.816,10.105-17.117,14.205c-28.312-54.372-43.799-115.301-45.007-176.97
		c7.563,0.594,14.901,2.09,21.909,4.38c-0.472,1.342-0.709,2.79-0.645,4.297c0.27,6.18,5.36,11.01,11.48,11.01
		c0.17,0,0.34,0,0.5-0.01c4.046-0.172,7.505-2.419,9.417-5.664C331.859,45.468,349.995,73.687,351.838,105.811z M185.735,178.125
		c0.987-0.924,1.844-2.018,2.477-3.304c2.81-5.7,0.46-12.59-5.24-15.39c-3.635-1.792-7.751-1.478-10.985,0.459
		c-8.365-14.395-12.985-30.985-12.985-48.389c0-26.514,10.534-51.234,29.663-69.606c5.094-4.894,10.622-9.152,16.486-12.757
		c1.888,3.345,5.397,5.678,9.521,5.853c0.16,0.01,0.33,0.01,0.5,0.01c6.12,0,11.21-4.83,11.48-11.01
		c0.066-1.553-0.184-3.046-0.686-4.421c7.068-2.262,14.422-3.698,21.95-4.275c-1.205,61.68-16.694,122.62-45.013,177
		C196.579,188.198,190.835,183.433,185.735,178.125z M215.913,199.782c8.722-16.686,16.278-33.969,22.63-51.693
		c2.719,8.219,5.672,16.361,8.867,24.41c-5.638,13.65-11.987,27.013-19.006,40.028C225.303,207.453,221.059,203.109,215.913,199.782
		z M15.082,307.502c1.974-48.973,41.827-89.532,90.729-92.337c10.792-0.62,21.403,0.583,31.468,3.394
		c-0.103,3.726,1.601,7.43,4.882,9.732c2.01,1.42,4.31,2.1,6.6,2.1c3.158,0,6.269-1.303,8.499-3.746
		c6.188,3.346,12.004,7.365,17.342,11.991c-37.251,52.611-86.984,95.814-144.186,125.238
		C19.641,347.283,14.264,327.805,15.082,307.502z M41.896,378.34c-0.75-0.781-1.479-1.575-2.2-2.375
		c57.533-30.078,107.666-73.629,145.6-126.477c3.83,4.559,7.27,9.505,10.249,14.807c-0.663,0.896-1.325,1.794-1.995,2.685
		c-37.388,49.782-86.007,91.677-140.647,121.224C49.029,385.228,45.35,381.936,41.896,378.34z M220.721,334.839
		c-10.009,3.309-18.3,10.576-23.345,20.461c-16.59,32.508-49.496,52.701-85.875,52.701c-15.667,0-30.706-3.68-44.18-10.636
		c52.971-29.961,100.149-71.181,136.98-119.746c4.529,4.837,10.105,8.454,16.354,10.522c3.443,1.139,6.992,2.235,10.594,3.282
		c-4.524,5.455-7.247,12.454-7.247,20.078c0,7.426,2.675,14.507,7.267,20.072C227.682,332.615,224.148,333.706,220.721,334.839z
		 M179.906,496.001c16.568-19.757,30.354-41.557,41.092-65.001c13.003-28.391,21.201-58.538,24.417-89.654
		c0.852,0.289,1.714,0.536,2.585,0.749v114.503c-20.196,3.218-36.185,19.207-39.402,39.402h-17.098H179.906z M290.004,431
		c10.738,23.445,24.524,45.245,41.092,65.001h-11.595h-17.098c-3.218-20.196-19.207-36.185-39.402-39.402V342.092
		c0.877-0.215,1.738-0.469,2.584-0.756C268.8,372.455,276.999,402.606,290.004,431z M313.626,355.3
		c-5.045-9.885-13.335-17.152-23.345-20.461c-3.42-1.131-6.948-2.219-10.528-3.26c4.524-5.455,7.247-12.454,7.247-20.078
		s-2.724-14.623-7.247-20.078c3.598-1.046,7.145-2.141,10.583-3.278c6.252-2.069,11.831-5.688,16.363-10.528
		c36.831,48.566,84.01,89.786,136.982,119.748c-13.475,6.956-28.514,10.636-44.181,10.636
		C363.122,408.001,330.216,387.807,313.626,355.3z M458.1,388.204c-54.64-29.547-103.259-71.443-140.647-121.224
		c-0.67-0.892-1.332-1.789-1.995-2.686c2.978-5.302,6.418-10.248,10.248-14.807c37.934,52.848,88.066,96.399,145.6,126.478
		c-0.72,0.801-1.45,1.595-2.2,2.375C465.652,381.936,461.973,385.228,458.1,388.204z M480.586,363.874
		c-57.203-29.425-106.936-72.627-144.187-125.239c5.329-4.618,11.135-8.632,17.31-11.974c2.247,2.703,5.507,4.161,8.841,4.161
		c2.29,0,4.6-0.68,6.61-2.1c3.419-2.411,5.115-6.349,4.837-10.24c9.982-2.755,20.498-3.93,31.193-3.316
		c48.902,2.805,88.755,43.364,90.729,92.337C496.738,327.805,491.362,347.283,480.586,363.874z"/>
	<path d="M203.661,138.821c2.2-5.96-0.85-12.57-6.81-14.77c-5.96-2.2-12.57,0.85-14.77,6.81c-2.2,5.96,0.85,12.57,6.81,14.77
		c1.32,0.48,2.66,0.71,3.98,0.71C197.551,146.341,201.951,143.471,203.661,138.821z"/>
	<path d="M201.311,109.711c0.95,0.24,1.91,0.36,2.84,0.36c5.14,0,9.82-3.46,11.14-8.67c1.57-6.15-2.15-12.41-8.31-13.98
		c-6.15-1.56-12.41,2.15-13.98,8.31C191.431,101.881,195.151,108.141,201.311,109.711z"/>
	<path d="M209.931,72.701c0.56,0.08,1.12,0.12,1.68,0.12c5.61,0,10.52-4.11,11.36-9.83c0.92-6.29-3.43-12.13-9.71-13.05
		c-6.29-0.92-12.13,3.43-13.05,9.71C199.291,65.941,203.641,71.781,209.931,72.701z"/>
	<path d="M38.621,333.551c2.03,0,4.1-0.54,5.97-1.68c5.42-3.3,7.14-10.37,3.84-15.8c-3.31-5.42-10.38-7.14-15.81-3.84
		c-5.42,3.3-7.14,10.38-3.84,15.8C30.951,331.591,34.741,333.551,38.621,333.551z"/>
	<path d="M69.991,312.151c2.43,0,4.87-0.76,6.95-2.34c5.06-3.84,6.04-11.06,2.2-16.12c-3.84-5.05-11.06-6.04-16.11-2.19
		c-5.06,3.84-6.04,11.06-2.2,16.11C63.091,310.591,66.521,312.151,69.991,312.151z"/>
	<path d="M117.811,257.471c2.18,1.9,4.87,2.83,7.54,2.83c3.22,0,6.41-1.34,8.69-3.96c4.16-4.79,3.65-12.06-1.14-16.22
		c-4.79-4.17-12.06-3.66-16.22,1.13C112.511,246.051,113.021,253.311,117.811,257.471z"/>
	<path d="M99.001,287.651c2.82,0,5.65-1.03,7.86-3.11c4.64-4.34,4.88-11.62,0.54-16.25c-4.35-4.64-11.62-4.88-16.26-0.54
		c-4.63,4.34-4.87,11.62-0.53,16.26C92.871,286.431,95.931,287.651,99.001,287.651z"/>
	<path d="M307.341,138.821c1.71,4.64,6.11,7.52,10.79,7.52c1.32,0,2.66-0.23,3.98-0.71c5.96-2.2,9-8.81,6.81-14.77
		c-2.2-5.96-8.82-9.01-14.77-6.81C308.191,126.251,305.141,132.861,307.341,138.821z"/>
	<path d="M297.741,49.941c-6.29,0.92-10.63,6.76-9.71,13.05c0.84,5.72,5.75,9.83,11.36,9.83c0.56,0,1.12-0.04,1.68-0.12
		c6.29-0.92,10.64-6.76,9.71-13.05C309.861,53.371,304.021,49.021,297.741,49.941z"/>
	<path d="M304.021,87.421c-6.16,1.57-9.88,7.83-8.31,13.98c1.32,5.21,6,8.67,11.14,8.67c0.93,0,1.89-0.12,2.84-0.36
		c6.16-1.57,9.88-7.82,8.31-13.98C316.431,89.571,310.171,85.861,304.021,87.421z"/>
	<path d="M403.981,268.661c-4.33,4.64-4.09,11.92,0.56,16.25c2.21,2.08,5.03,3.1,7.84,3.1c3.08,0,6.15-1.23,8.41-3.65
		c4.33-4.64,4.09-11.92-0.56-16.25C415.591,263.771,408.311,264.021,403.981,268.661z"/>
	<path d="M378.441,240.531c-4.79,4.17-5.29,11.43-1.12,16.22c2.28,2.61,5.47,3.95,8.68,3.95c2.68,0,5.37-0.94,7.55-2.83
		c4.79-4.18,5.28-11.44,1.11-16.23C390.491,236.851,383.221,236.351,378.441,240.531z"/>
	<path d="M448.381,291.811c-5.06-3.84-12.27-2.84-16.11,2.22c-3.83,5.06-2.84,12.27,2.22,16.11c2.08,1.57,4.52,2.34,6.94,2.34
		c3.48,0,6.91-1.57,9.17-4.56C454.441,302.861,453.451,295.651,448.381,291.811z"/>
	<path d="M478.811,312.501c-5.42-3.3-12.5-1.57-15.79,3.86c-3.3,5.43-1.57,12.5,3.86,15.8c1.87,1.13,3.93,1.67,5.96,1.67
		c3.88,0,7.68-1.97,9.84-5.54C485.971,322.861,484.241,315.791,478.811,312.501z"/>
</g>
<g>
</g>
<g>
</g>
<g>
</g>
<g>
</g>
<g>
</g>
<g>
</g>
<g>
</g>
<g>
</g>
<g>
</g>
<g>
</g>
<g>
</g>
<g>
</g>
<g>
</g>
<g>
</g>
<g>
</g>
</svg>
