<?xml version="1.0" encoding="iso-8859-1"?>
<!-- Generator: Adobe Illustrator 17.1.0, SVG Export Plug-In . SVG Version: 6.00 Build 0)  -->
<!DOCTYPE svg PUBLIC "-//W3C//DTD SVG 1.1//EN" "http://www.w3.org/Graphics/SVG/1.1/DTD/svg11.dtd">
<svg version="1.1" id="Capa_1" xmlns="http://www.w3.org/2000/svg" xmlns:xlink="http://www.w3.org/1999/xlink" x="0px" y="0px"
	 viewBox="0 0 511 511" style="enable-background:new 0 0 511 511;" xml:space="preserve">
<g>
	<path d="M367.5,28c-43.699,0-84.842,19.961-112,53.867C228.342,47.961,187.199,28,143.5,28C64.374,28,0,92.374,0,171.5
		c0,38.869,13.438,79.492,39.94,120.742c20.935,32.584,50.057,65.672,86.558,98.347c61.891,55.402,124.688,91.089,125.315,91.443
		c1.144,0.646,2.416,0.969,3.687,0.969s2.543-0.323,3.687-0.969c0.627-0.354,63.425-36.041,125.315-91.443
		c36.5-32.674,65.623-65.763,86.558-98.347C497.562,250.992,511,210.369,511,171.5C511,92.374,446.626,28,367.5,28z M301.781,64.389
		c7.979,1.885,15.819,4.272,23.477,7.125l-6.508,15.711c-12.504-4.588-25.544-7.821-38.92-9.595
		c5.887-5.5,12.256-10.405,19.006-14.681C299.675,63.62,300.666,64.125,301.781,64.389z M212.165,62.95
		c6.75,4.275,13.118,9.181,19.006,14.68c-13.376,1.774-26.416,5.007-38.92,9.594l-6.508-15.711
		c7.658-2.853,15.498-5.24,23.477-7.125C210.334,64.126,211.325,63.62,212.165,62.95z M171.895,77.282l6.495,15.679
		c-17.183,7.962-33.117,18.601-47.228,31.618l-12.018-12.018C134.773,98.084,152.624,86.161,171.895,77.282z M108.532,123.162
		l12.02,12.02c-0.071,0.077-0.144,0.151-0.214,0.228c-12.961,14.108-23.492,29.976-31.384,47.01l-15.796-6.542
		c6.775-14.703,15.392-28.658,25.792-41.636C102.01,130.423,105.212,126.733,108.532,123.162z M67.401,189.728l15.809,6.548
		c-6.512,17.751-10.271,36.532-11.049,55.747H55.143C55.922,230.422,60.063,209.493,67.401,189.728z M57.359,290.382
		c-1.187-7.687-1.928-15.516-2.218-23.359h17.025c0.855,21.166,5.304,41.421,12.766,60.165
		c-10.261-11.946-19.439-23.862-27.493-35.704C57.436,291.12,57.416,290.753,57.359,290.382z M248,462.288
		c-8.745-5.375-22.062-13.857-37.989-24.975c12.222,3.129,24.933,5.016,37.989,5.544V462.288z M263,442.857
		c13.052-0.528,25.76-2.414,37.978-5.541c-15.92,11.111-29.233,19.593-37.978,24.969V442.857z M438.834,267.023h17.025
		c-0.29,7.843-1.031,15.67-2.217,23.354c-0.057,0.372-0.077,0.74-0.079,1.105c-8.054,11.841-17.232,23.757-27.493,35.703
		C433.531,308.442,437.979,288.188,438.834,267.023z M438.839,252.023c-0.778-19.215-4.536-37.996-11.049-55.747l15.809-6.548
		c7.337,19.766,11.479,40.695,12.258,62.295H438.839z M422.045,182.419c-7.891-17.034-18.422-32.901-31.384-47.01
		c-0.071-0.077-0.143-0.151-0.214-0.228l12.02-12.02c3.32,3.571,6.522,7.261,9.582,11.079c10.4,12.978,19.016,26.933,25.792,41.636
		L422.045,182.419z M379.837,124.579c-14.11-13.017-30.044-23.656-47.227-31.618l6.495-15.68
		c19.272,8.879,37.123,20.803,52.751,35.279L379.837,124.579z M255.5,101.927c2.466,0,4.775-1.212,6.174-3.243
		c1.902-2.759,3.912-5.419,6.002-7.999c0.933,0.554,1.996,0.921,3.149,1.025c41.704,3.758,80.34,22.881,108.79,53.848
		c28.607,31.138,44.368,71.587,44.384,113.902c0,0.021-0.003,0.042-0.003,0.063c0,0.021,0.003,0.041,0.003,0.062
		c-0.034,92.883-75.609,168.438-168.499,168.438c-92.893,0-168.47-75.56-168.499-168.446c0-0.018,0.003-0.036,0.003-0.054
		c0-0.019-0.003-0.037-0.003-0.055c0.014-42.317,15.775-82.77,44.384-113.91c28.45-30.967,67.086-50.09,108.79-53.848
		c1.153-0.104,2.216-0.47,3.149-1.025c2.09,2.58,4.1,5.24,6.002,7.999C250.725,100.714,253.034,101.927,255.5,101.927z M15,171.5
		C15,100.645,72.645,43,143.5,43c17.383,0,34.312,3.536,49.896,10.121c-41.502,12.511-78.836,37.655-106.15,71.74
		C56.779,162.88,40,210.704,40,259.523c0,1.083,0.015,2.166,0.031,3.249C23.409,231.433,15,200.818,15,171.5z M470.969,262.771
		c0.016-1.083,0.031-2.166,0.031-3.248c0-28.142-5.586-55.949-16.145-81.742c-0.073-0.244-0.159-0.486-0.259-0.727
		c-0.089-0.216-0.19-0.423-0.297-0.625c-7.698-18.45-17.948-35.849-30.545-51.569c-27.313-34.084-64.648-59.229-106.15-71.74
		C333.188,46.536,350.117,43,367.5,43C438.355,43,496,100.645,496,171.5C496,200.818,487.59,231.432,470.969,262.771z"/>
	<path d="M206.667,141.631c-0.404,0.167-0.78,0.372-1.137,0.598C159.992,161.703,128,206.945,128,259.523
		c0,70.304,57.196,127.5,127.5,127.5S383,329.827,383,259.523s-57.196-127.5-127.5-127.5c-16.82,0-32.887,3.281-47.603,9.226
		C207.484,141.342,207.072,141.463,206.667,141.631z M329.53,174.887l-12.046,12.046c-5.675-4.853-11.92-9.056-18.625-12.487
		l6.52-15.741C314.133,163.054,322.245,168.507,329.53,174.887z M356.318,209.645l-15.741,6.52
		c-3.431-6.705-7.635-12.95-12.488-18.625l12.046-12.046C346.515,192.777,351.969,200.89,356.318,209.645z M362.083,295.553
		l-15.754-6.526c2.285-7.017,3.782-14.385,4.377-22.004h17.038C367.088,276.935,365.152,286.501,362.083,295.553z M340.136,333.553
		l-12.047-12.047c4.853-5.675,9.057-11.92,12.488-18.625l15.741,6.52C351.969,318.156,346.516,326.268,340.136,333.553z
		 M305.378,360.341l-6.52-15.741c6.705-3.431,12.95-7.635,18.625-12.487l12.047,12.047
		C322.246,350.538,314.133,355.992,305.378,360.341z M181.47,344.159l12.046-12.047c5.675,4.853,11.92,9.056,18.625,12.487
		l-6.52,15.741C196.867,355.992,188.754,350.539,181.47,344.159z M154.682,309.401l15.741-6.52
		c3.431,6.705,7.635,12.95,12.487,18.625l-12.046,12.047C164.484,326.268,159.031,318.156,154.682,309.401z M148.917,223.492
		l15.754,6.526c-2.285,7.017-3.783,14.385-4.377,22.005h-17.038C143.912,242.111,145.848,232.544,148.917,223.492z M170.864,185.493
		l12.047,12.047c-4.853,5.675-9.057,11.92-12.488,18.625l-15.741-6.52C159.031,200.89,164.484,192.777,170.864,185.493z
		 M255.494,179.023c0.002,0,0.004,0,0.006,0s0.004,0,0.006,0c44.378,0.003,80.483,36.104,80.493,80.48
		c0,0.007-0.001,0.013-0.001,0.019s0.001,0.013,0.001,0.019c-0.01,44.37-36.104,80.466-80.474,80.48
		c-0.009,0-0.017-0.001-0.026-0.001s-0.017,0.001-0.026,0.001c-44.374-0.014-80.47-36.117-80.474-80.493c0-0.002,0-0.004,0-0.006
		s0-0.004,0-0.006C175.004,215.134,211.111,179.027,255.494,179.023z M143.256,267.023h17.038
		c0.595,7.619,2.092,14.988,4.377,22.004l-15.754,6.526C145.848,286.501,143.912,276.935,143.256,267.023z M225.995,350.352
		c7.017,2.285,14.385,3.783,22.004,4.377v17.037c-9.912-0.656-19.479-2.593-28.53-5.66L225.995,350.352z M263,354.729
		c7.62-0.595,14.988-2.092,22.005-4.377l6.526,15.754c-9.052,3.068-18.619,5.005-28.531,5.661V354.729z M367.744,252.023h-17.038
		c-0.595-7.619-2.092-14.988-4.377-22.005l15.754-6.526C365.152,232.544,367.088,242.111,367.744,252.023z M285.005,168.694
		c-7.017-2.285-14.385-3.782-22.005-4.377v-17.038c9.912,0.656,19.479,2.593,28.53,5.661L285.005,168.694z M248,164.316
		c-7.619,0.595-14.988,2.092-22.005,4.377l-6.526-15.754c9.052-3.068,18.619-5.005,28.53-5.661V164.316z M212.142,174.446
		c-6.705,3.431-12.95,7.635-18.625,12.488l-12.047-12.047c7.284-6.379,15.396-11.833,24.152-16.182L212.142,174.446z"/>
	<path d="M255.5,299.023c21.78,0,39.5-17.72,39.5-39.5s-17.72-39.5-39.5-39.5s-39.5,17.72-39.5,39.5S233.72,299.023,255.5,299.023z
		 M255.5,235.023c13.509,0,24.5,10.991,24.5,24.5s-10.991,24.5-24.5,24.5s-24.5-10.991-24.5-24.5S241.991,235.023,255.5,235.023z"/>
</g>
<g>
</g>
<g>
</g>
<g>
</g>
<g>
</g>
<g>
</g>
<g>
</g>
<g>
</g>
<g>
</g>
<g>
</g>
<g>
</g>
<g>
</g>
<g>
</g>
<g>
</g>
<g>
</g>
<g>
</g>
</svg>
