<?xml version="1.0" encoding="iso-8859-1"?>
<!-- Generator: Adobe Illustrator 17.1.0, SVG Export Plug-In . SVG Version: 6.00 Build 0)  -->
<!DOCTYPE svg PUBLIC "-//W3C//DTD SVG 1.1//EN" "http://www.w3.org/Graphics/SVG/1.1/DTD/svg11.dtd">
<svg version="1.1" id="Capa_1" xmlns="http://www.w3.org/2000/svg" xmlns:xlink="http://www.w3.org/1999/xlink" x="0px" y="0px"
	 viewBox="0 0 511 511" style="enable-background:new 0 0 511 511;" xml:space="preserve">
<g>
	<path d="M457.513,177.111c-19.607-30.255-46.877-60.974-81.053-91.302C318.532,34.401,259.75,1.284,259.163,0.955
		c-2.275-1.273-5.05-1.273-7.325,0c-0.587,0.329-59.37,33.446-117.297,84.854c-34.176,30.329-61.446,61.047-81.053,91.302
		c-24.851,38.345-37.451,76.121-37.451,112.28C16.036,363.063,76.465,423,150.742,423c23.014,0,45.045-5.631,64.761-16.437
		c-12.671,33.944-32.166,65.359-57.089,91.792c-2.054,2.178-2.616,5.368-1.43,8.117s3.893,4.528,6.886,4.528h184.599
		c2.994,0,5.7-1.78,6.886-4.528s0.624-5.939-1.43-8.117c-24.701-26.197-44.088-57.324-56.768-90.942
		c19.325,10.248,40.79,15.587,63.1,15.587c74.277,0,134.706-59.937,134.706-133.609
		C494.964,253.232,482.364,215.456,457.513,177.111z M473.746,327.14l-54.965-54.965c5.971-6.372,11.55-13.081,16.719-20.092
		c1.183,0.396,2.405,0.597,3.619,0.597c3.72,0,7.36-1.79,9.58-5.11c2.963-4.431,2.428-10.163-0.944-13.981
		c4.362-7.353,8.311-14.974,11.823-22.836c6.907,13.766,12.076,27.37,15.477,40.754c-0.397-0.354-0.812-0.693-1.266-0.997
		c-5.28-3.53-12.42-2.11-15.95,3.17c-3.53,5.28-2.1,12.42,3.18,15.95c1.96,1.31,4.18,1.94,6.37,1.94c3.72,0,7.36-1.79,9.58-5.11
		c0.353-0.528,0.642-1.078,0.897-1.637c1.393,8.287,2.097,16.482,2.097,24.568C479.964,302.583,477.776,315.277,473.746,327.14z
		 M375.573,289.977C340.323,314.852,298.802,328,255.5,328c-43.097,0-84.455-13.034-119.603-37.693
		c-34.313-24.072-60.318-57.394-75.218-96.373c1.703-2.845,3.472-5.694,5.32-8.55c0.243-0.376,0.503-0.753,0.749-1.129
		C94.123,264.318,169.646,319,255.5,319c85.863,0,161.379-54.68,188.753-134.746c0.221,0.338,0.454,0.677,0.673,1.015
		c1.874,2.892,3.666,5.778,5.391,8.659C435.494,232.717,409.677,265.91,375.573,289.977z M255.5,175c13.509,0,24.5,10.991,24.5,24.5
		S269.009,224,255.5,224S231,213.009,231,199.5S241.991,175,255.5,175z M144.294,97.208C186.162,60.02,228.468,32.613,248,20.67
		v140.053c-18.205,3.515-32,19.561-32,38.777c0,21.78,17.72,39.5,39.5,39.5s39.5-17.72,39.5-39.5c0-19.216-13.795-35.262-32-38.777
		V20.667c19.488,11.912,61.659,39.226,103.504,76.361c26.874,23.849,49.294,47.867,66.875,71.615
		C411.392,248.498,338.697,304,255.5,304c-83.189,0-155.89-55.504-177.878-135.355C95.159,144.956,117.509,120.998,144.294,97.208z
		 M33.259,264.06c0.321,1.035,0.788,2.043,1.421,2.989c2.22,3.32,5.86,5.11,9.57,5.11c2.2,0,4.42-0.63,6.38-1.94
		c5.28-3.53,6.7-10.67,3.17-15.95c-3.53-5.28-10.67-6.7-15.95-3.17c-0.883,0.589-1.648,1.286-2.31,2.052
		c3.389-13.912,8.689-28.064,15.877-42.392c3.638,8.141,7.75,16.019,12.297,23.612c-3.213,3.816-3.676,9.432-0.765,13.787
		c2.22,3.32,5.86,5.11,9.57,5.11c1.163,0,2.33-0.182,3.462-0.541c5.035,6.777,10.453,13.268,16.239,19.444L37.254,327.14
		c-4.03-11.863-6.217-24.557-6.217-37.749C31.036,281.057,31.78,272.608,33.259,264.06z M43.521,342.086l59.321-59.321
		c6.078,5.673,12.493,11.028,19.227,16.041c-2.277,5.032-0.662,11.113,4.081,14.284c1.96,1.31,4.18,1.94,6.38,1.94
		c3.099,0,6.138-1.272,8.353-3.622c7.169,4.296,14.543,8.166,22.09,11.606l-32.722,78.998c-0.567,1.369-0.692,2.809-0.451,4.168
		C91.925,399.531,60.152,375.174,43.521,342.086z M236.553,390.544c0.893-3.123-0.327-6.466-3.021-8.281
		c-2.693-1.814-6.25-1.689-8.809,0.311C203.444,399.208,177.862,408,150.742,408c-2.236,0-4.457-0.066-6.664-0.187
		c0.009-0.021,0.022-0.039,0.031-0.061l32.715-78.98c7.858,2.956,15.877,5.464,24.028,7.509c-0.086,5.452,3.711,10.356,9.249,11.458
		c0.76,0.15,1.51,0.23,2.25,0.23c4.714,0,8.983-2.911,10.7-7.312c8.227,1.194,16.553,1.935,24.95,2.211V495.5
		c0,0.169,0.014,0.334,0.025,0.5H180.56C206.317,465.212,225.544,429.07,236.553,390.544z M287.886,383.766
		c-2.579-1.947-6.115-2.023-8.776-0.189c-2.661,1.834-3.847,5.167-2.945,8.27c11.063,38.028,30.159,73.721,55.616,104.154h-68.806
		c0.011-0.166,0.025-0.331,0.025-0.5V342.869c8.385-0.276,16.697-1.015,24.91-2.204c1.638,4.556,5.985,7.595,10.79,7.595
		c0.75,0,1.5-0.07,2.26-0.22c5.639-1.123,9.469-6.196,9.228-11.767c8.137-2.043,16.143-4.548,23.989-7.5l32.74,79.041
		c-2.205,0.12-4.424,0.187-6.659,0.187C333.906,408,308.88,399.62,287.886,383.766z M382.281,405.98
		c-0.091-0.383-0.205-0.764-0.36-1.14l-33.892-81.823c7.529-3.432,14.887-7.29,22.04-11.574c2.231,2.478,5.371,3.817,8.561,3.817
		c2.19,0,4.41-0.63,6.38-1.94c4.825-3.225,6.413-9.461,3.96-14.542c6.721-5.006,13.124-10.351,19.189-16.012l59.32,59.32
		C451.007,374.859,419.678,399.061,382.281,405.98z"/>
	<path d="M303.1,358.82c-6.22,1.24-10.27,7.3-9.03,13.53c1.09,5.47,5.89,9.25,11.26,9.25c0.75,0,1.5-0.07,2.26-0.22
		c6.23-1.24,10.28-7.29,9.04-13.52C315.39,361.63,309.33,357.58,303.1,358.82z"/>
	<path d="M207.95,358.53c-6.23-1.24-12.28,2.81-13.52,9.04c-1.24,6.23,2.81,12.28,9.04,13.52c0.75,0.15,1.51,0.22,2.25,0.22
		c5.38,0,10.18-3.78,11.27-9.26C218.23,365.82,214.18,359.77,207.95,358.53z"/>
	<path d="M101.15,350.5c-5.28-3.52-12.42-2.11-15.95,3.18c-3.53,5.28-2.11,12.42,3.17,15.95c1.96,1.31,4.18,1.94,6.38,1.94
		c3.71,0,7.35-1.8,9.57-5.12C107.85,361.17,106.43,354.03,101.15,350.5z"/>
	<path d="M120.04,322.23c-5.28-3.53-12.42-2.11-15.95,3.18c-3.53,5.28-2.11,12.42,3.17,15.95c1.96,1.31,4.18,1.94,6.38,1.94
		c3.71,0,7.35-1.8,9.57-5.12C126.74,332.9,125.32,325.76,120.04,322.23z"/>
	<path d="M407.07,325.64c-3.53-5.28-10.67-6.7-15.95-3.18c-5.29,3.53-6.7,10.67-3.18,15.95c2.22,3.32,5.86,5.12,9.58,5.12
		c2.19,0,4.41-0.63,6.37-1.94C409.18,338.06,410.6,330.92,407.07,325.64z"/>
	<path d="M410.01,350.73c-5.29,3.53-6.71,10.67-3.18,15.95c2.22,3.32,5.86,5.12,9.57,5.12c2.2,0,4.42-0.63,6.38-1.94
		c5.29-3.53,6.7-10.67,3.18-15.95C422.43,348.62,415.29,347.21,410.01,350.73z"/>
</g>
<g>
</g>
<g>
</g>
<g>
</g>
<g>
</g>
<g>
</g>
<g>
</g>
<g>
</g>
<g>
</g>
<g>
</g>
<g>
</g>
<g>
</g>
<g>
</g>
<g>
</g>
<g>
</g>
<g>
</g>
</svg>
